<svg xmlns="http://www.w3.org/2000/svg" width="115" height="115" viewBox="0 0 115 115">
    <defs>
        <style>
            .cls-1{fill:#ff9b57}
        </style>
    </defs>
    <g id="icone" transform="translate(539.931 -.021)">
        <g id="Group_217" data-name="Group 217">
            <g id="Group_216" data-name="Group 216">
                <g id="Group_208" data-name="Group 208">
                    <g id="Group_207" data-name="Group 207">
                        <path id="Path_306" d="M-482.431 115.021a57.565 57.565 0 0 1-57.5-57.5 57.566 57.566 0 0 1 57.5-57.5 57.565 57.565 0 0 1 57.5 57.5 57.564 57.564 0 0 1-57.5 57.5zm0-111.106a53.667 53.667 0 0 0-53.606 53.607 53.667 53.667 0 0 0 53.606 53.606 53.668 53.668 0 0 0 53.607-53.606 53.668 53.668 0 0 0-53.607-53.607z" class="cls-1" data-name="Path 306"/>
                    </g>
                </g>
                <g id="Group_215" data-name="Group 215">
                    <path id="Path_307" d="M-495.822 82.361c3.752 6.953 14.6 7.382 19.792 3.27a1.126 1.126 0 0 1-.212-.13 2.548 2.548 0 0 1-.365-.469.865.865 0 0 1 .178-1.248 1.314 1.314 0 0 1 .578-.255c1.237-.228 3.766-.6 4.138.075.453.816-.57 2.825-1.118 4-.26.56-.68.953-1.249.749-.315-.114-.487-.55-.783-.913-1.037.426-1.486.843-2.691 1.353-4.779 2.079-8.9 1.465-13.069-.633a9.873 9.873 0 0 1-4.211-3.831c-.366-.629-.66-1.31-.988-1.968z" class="cls-1" data-name="Path 307"/>
                    <path id="Path_308" d="M-494.7 35.338c-8.235-.064-15.379 8.846-15.138 15.1a1.339 1.339 0 0 1 .243-.117 3.1 3.1 0 0 1 .625-.091c.764-.027.934.389.947.727a1.244 1.244 0 0 1-.146.6c-.579 1.145-1.848 3.438-2.649 3.44-.975 0-2.037-1.785-2.693-2.788a.934.934 0 0 1 .146-1.4c.293-.212.77-.155 1.262-.236.288-1.067.214-1.637.536-2.883 1.224-4.973 4.322-8.152 8.7-10.678a12.287 12.287 0 0 1 5.878-1.764c.771-.003 1.531.061 2.289.09z" class="cls-1" data-name="Path 308"/>
                    <path id="Path_309" d="M-453.167 55.176c3.677-7.7-1.616-16.693-7.641-18.078a1.247 1.247 0 0 1 0 .258 3.214 3.214 0 0 1-.189.609c-.31.723-.778.775-1.1.7a1.045 1.045 0 0 1-.506-.291c-.829-.838-2.441-2.617-2.091-3.369.425-.915 2.583-1.45 3.821-1.807.589-.169 1.125-.1 1.255.5.072.33-.191.762-.331 1.244.884.545 1.455.622 2.493 1.244 4.167 2.429 5.815 6.151 6.281 10.907a11.684 11.684 0 0 1-.912 5.964c-.324.716-.713 1.412-1.08 2.119z" class="cls-1" data-name="Path 309"/>
                    <g id="Group_210" data-name="Group 210">
                        <g id="Group_209" data-name="Group 209">
                            <path id="Path_310" d="M-472.65 31.679a7.966 7.966 0 0 1-.101.687 7.285 7.285 0 0 1-.289 1.033 7.433 7.433 0 0 1-.436.977l-.074.134c-.089.157-.182.31-.281.46l-.09.133a7.831 7.831 0 0 1-1.28 1.434 7.93 7.93 0 0 1-.14.118c-.08.067-.162.133-.245.2q-.081.063-.165.123a6.88 6.88 0 0 1-.375.256l-.055.035a7.486 7.486 0 0 1-1.005.533l-.03.013a7.424 7.424 0 0 1-1.009.349q-.109.029-.219.054a7.168 7.168 0 0 1-1.055.163c-.115.008-.23.014-.346.017h-.346c-.115 0-.229-.009-.342-.017a6.53 6.53 0 0 1-1.024-.163 7.104 7.104 0 0 1-.209-.054 6.144 6.144 0 0 1-.941-.349l-.028-.013a6.901 6.901 0 0 1-.4-.207 5.646 5.646 0 0 1-.506-.324l-.049-.035a5.73 5.73 0 0 1-.326-.256q-.071-.06-.141-.123c-.07-.063-.14-.129-.207-.2s-.147-.15-.218-.228a5.907 5.907 0 0 1-.9-1.324l-.064-.133c-.07-.15-.133-.3-.191-.46-.017-.044-.032-.089-.048-.134a6.16 6.16 0 0 1-.247-.977 6.63 6.63 0 0 1-.088-1.033c0-.113 0-.227.007-.341s.014-.23.025-.346.045-.231.063-.346c.01-.07.047-.14.054-.209v-.13c0-.043.008-.084.017-.127.028-.126.053-.251.088-.375.049-.18.1-.358.167-.533a7.179 7.179 0 0 1 .435-.977l.036-.067.037-.067a6.962 6.962 0 0 1 .37-.593 7.831 7.831 0 0 1 1.28-1.434l.139-.118a6.368 6.368 0 0 1 .41-.323c.123-.089.248-.175.376-.256l.055-.035a7.475 7.475 0 0 1 1.005-.531l.03-.013a7.228 7.228 0 0 1 1.008-.348c.073-.02.146-.038.22-.055a7.016 7.016 0 0 1 1.055-.162q.172-.014.345-.018h.347q.172 0 .342.018a6.432 6.432 0 0 1 1.024.162c.07.017.14.035.209.055a6.074 6.074 0 0 1 .941.348l.027.013a5.835 5.835 0 0 1 .9.531l.049.035c.111.081.22.167.325.256.048.04.1.081.142.123.07.063.139.129.207.2a6.4 6.4 0 0 1 .115.117 5.883 5.883 0 0 1 1 1.435l.064.133q.105.225.192.46l.048.134a6.267 6.267 0 0 1 .247.977 6.63 6.63 0 0 1 .088 1.033v.159l-.006.182c.006.113-.002.228-.013.344z" class="cls-1" data-name="Path 310"/>
                            <path id="Path_311" d="M-486.009 31.12zm-.115-.062l.017.01a.574.574 0 0 0 .1.052l-.02-.013c-.03-.017-.067-.033-.097-.049z" class="cls-1" data-name="Path 311"/>
                            <path id="Path_312" d="M-486.124 31.058c.03.016.067.032.1.049-.023-.013-.052-.026-.078-.039z" class="cls-1" data-name="Path 312"/>
                            <path id="Path_313" d="M-486 31.122z" class="cls-1" data-name="Path 313"/>
                        </g>
                        <path id="Path_314" d="M-469.54 44.825l-.674 6.955c-.014.143-.009.17-.146.17h-21.94c-.136 0-.255-.027-.241-.17l.674-6.955c.011-.112.016-.224.032-.334a7.559 7.559 0 0 1 2.2-4.286l.1-.1a7.438 7.438 0 0 1 1.918-1.32l.127-.059q.288-.129.587-.232l.133-.044q.268-.085.541-.148a7.756 7.756 0 0 0 .625.592 8.1 8.1 0 0 0 1.846 1.176q.189.089.381.165a8.225 8.225 0 0 0 1.536.448 8.615 8.615 0 0 0 1.591.146 9.018 9.018 0 0 0 1.846-.185 1.2 1.2 0 0 1 .227-.044h.334a2.958 2.958 0 0 0 .892-.34c.117-.044.238-.144.354-.193a8.911 8.911 0 0 0 1.635-.932.359.359 0 0 0 .169-.088 10.749 10.749 0 0 0 .987-.759 5.843 5.843 0 0 1 4.338 6.195c-.015.111-.061.23-.072.342z" class="cls-1" data-name="Path 314"/>
                    </g>
                    <g id="Group_212" data-name="Group 212">
                        <g id="Group_211" data-name="Group 211">
                            <path id="Path_315" d="M-492.931 58.239a7.92 7.92 0 0 1-.101.686 7.148 7.148 0 0 1-.289 1.033 7.42 7.42 0 0 1-.436.976l-.074.135a8.281 8.281 0 0 1-.281.459l-.09.134a7.825 7.825 0 0 1-1.28 1.433l-.14.119c-.08.067-.162.132-.245.2-.054.041-.109.083-.165.123q-.183.134-.375.256l-.055.035q-.254.159-.519.3-.239.126-.486.233l-.03.013a7.161 7.161 0 0 1-1.009.349c-.073.019-.146.038-.219.055a7.03 7.03 0 0 1-1.056.162 6.53 6.53 0 0 1-.345.017h-.346c-.115 0-.229-.009-.342-.017a6.4 6.4 0 0 1-1.024-.162 7.114 7.114 0 0 1-.209-.055 5.942 5.942 0 0 1-.941-.349l-.028-.013q-.2-.1-.4-.206a5.877 5.877 0 0 1-.506-.324l-.049-.035a6.22 6.22 0 0 1-.326-.256l-.141-.123c-.07-.064-.14-.129-.207-.2s-.148-.151-.218-.229a5.9 5.9 0 0 1-.9-1.323 8.146 8.146 0 0 1-.064-.134q-.105-.225-.191-.459-.025-.067-.048-.135a6.037 6.037 0 0 1-.247-.976 6.63 6.63 0 0 1-.088-1.033c0-.112 0-.226.007-.341s.014-.23.025-.345.02-.232.038-.346c.01-.07.023-.14.029-.21.005-.043.021-.086.03-.129l.029-.127c.027-.126.059-.252.093-.376q.075-.27.17-.533a7.43 7.43 0 0 1 .437-.976l.037-.068.037-.067a8.265 8.265 0 0 1 .371-.592 7.761 7.761 0 0 1 1.28-1.434l.139-.119.246-.2c.054-.041.109-.083.164-.123q.185-.134.376-.256l.055-.035a7.585 7.585 0 0 1 1.005-.53l.03-.013a7.105 7.105 0 0 1 1.008-.349c.073-.019.146-.038.22-.055a7 7 0 0 1 1.055-.162c.115-.008.23-.014.345-.017h.347c.115 0 .229.009.342.017a6.432 6.432 0 0 1 1.024.162c.07.017.14.036.209.055a5.977 5.977 0 0 1 .941.349l.027.013a5.911 5.911 0 0 1 .9.53l.049.035c.111.082.22.167.325.256.048.04.1.082.141.123.071.064.14.129.208.2l.115.118a5.845 5.845 0 0 1 1 1.435l.064.133q.105.225.192.459l.048.135a6.142 6.142 0 0 1 .246.976 6.206 6.206 0 0 1 .089 1.033v.158l-.006.183c.002.112-.006.228-.017.344z" class="cls-1" data-name="Path 315"/>
                            <path id="Path_316" d="M-506.29 57.68zm-.115-.062l.017.009a.569.569 0 0 0 .1.053l-.021-.014c-.029-.016-.066-.033-.091-.048z" class="cls-1" data-name="Path 316"/>
                            <path id="Path_317" d="M-506.4 57.618c.03.015.067.032.094.048-.022-.013-.051-.026-.077-.039z" class="cls-1" data-name="Path 317"/>
                            <path id="Path_318" d="M-506.285 57.681z" class="cls-1" data-name="Path 318"/>
                        </g>
                        <path id="Path_319" d="M-489.687 71.384l-.674 6.955c-.014.143-.142.153-.278.153h-21.945c-.137 0-.306-.01-.292-.153l.674-6.955c.011-.112.04-.223.056-.334a7.578 7.578 0 0 1 2.207-4.285c.034-.034.072-.067.107-.1a7.411 7.411 0 0 1 1.921-1.32l.128-.059a6.9 6.9 0 0 1 .588-.232l.134-.044c.178-.057.359-.106.541-.148a7.914 7.914 0 0 0 .624.592 8.132 8.132 0 0 0 1.847 1.176c.126.058.253.113.381.164a8.066 8.066 0 0 0 1.535.448 8.634 8.634 0 0 0 1.592.146 9.036 9.036 0 0 0 1.847-.193 1.209 1.209 0 0 1 .228-.053h.333a2.928 2.928 0 0 0 .892-.331c.116-.044.238-.148.354-.2a9 9 0 0 0 1.636-.936.336.336 0 0 0 .168-.08 10.87 10.87 0 0 0 .987-.754 5.894 5.894 0 0 1 4.4 6.2c-.004.111.02.231.009.343z" class="cls-1" data-name="Path 319"/>
                    </g>
                    <g id="Group_214" data-name="Group 214">
                        <g id="Group_213" data-name="Group 213">
                            <path id="Path_320" d="M-454.86 59.222a6.665 6.665 0 0 1-.22 1.187 8.312 8.312 0 0 1-.17.533 7.307 7.307 0 0 1-.436.977l-.074.134q-.132.236-.28.46l-.091.133a7.725 7.725 0 0 1-1.28 1.434c-.045.04-.092.079-.139.119l-.245.2-.165.122a7.756 7.756 0 0 1-.375.256l-.056.035a7.245 7.245 0 0 1-1.005.533l-.03.013a7.364 7.364 0 0 1-1.008.349l-.22.055a7 7 0 0 1-1.055.162c-.115.008-.23.014-.345.017h-.347c-.115 0-.229-.009-.342-.017a6.433 6.433 0 0 1-1.024-.162l-.209-.055a6.182 6.182 0 0 1-.941-.349l-.027-.013q-.2-.1-.4-.207a5.645 5.645 0 0 1-.506-.324l-.048-.035a5.397 5.397 0 0 1-.326-.256c-.048-.04-.1-.081-.141-.122-.071-.064-.14-.129-.207-.2s-.148-.151-.218-.229a5.819 5.819 0 0 1-.9-1.324l-.064-.133q-.105-.225-.191-.46a3.042 3.042 0 0 1-.048-.134 6.05 6.05 0 0 1-.247-.977 6.206 6.206 0 0 1-.088-1.033c0-.113 0-.227.007-.341s.013-.23.025-.346-.026-.231-.009-.345c.01-.071-.023-.14-.017-.21.005-.043.067-.087.076-.13s.043-.084.052-.126c.028-.127.071-.252.105-.376.05-.18.113-.358.176-.533a7.387 7.387 0 0 1 .44-.976l.038-.068.038-.067c.088-.156.182-.31.281-.459.029-.045.06-.09.09-.134a7.761 7.761 0 0 1 1.281-1.433c.045-.041.092-.08.139-.119.08-.067.162-.132.245-.2q.082-.063.165-.123c.122-.089.248-.174.375-.256l.056-.035a7.639 7.639 0 0 1 1-.531l.03-.013a7.285 7.285 0 0 1 1.009-.348c.073-.02.146-.038.22-.055a7 7 0 0 1 1.055-.162 5.69 5.69 0 0 1 .345-.017h.347c.115 0 .229.008.342.017a6.4 6.4 0 0 1 1.023.162c.07.017.14.035.209.055a6 6 0 0 1 .941.348l.028.013a5.914 5.914 0 0 1 .9.531l.048.035c.112.082.221.167.326.256q.072.06.141.123c.071.064.14.129.207.2.039.038.077.078.115.117a5.886 5.886 0 0 1 1 1.435l.064.134c.07.149.134.3.192.459l.047.135a6.011 6.011 0 0 1 .247.976 6.63 6.63 0 0 1 .088 1.033v.159c0 .053 0 .122-.006.183.007.112-.001.227-.013.343z" class="cls-1" data-name="Path 320"/>
                            <path id="Path_321" d="M-468.218 58.663zm-.115-.062l.017.01a.574.574 0 0 0 .1.052l-.021-.013c-.03-.017-.063-.033-.096-.05z" class="cls-1" data-name="Path 321"/>
                            <path id="Path_322" d="M-468.333 58.6c.03.016.066.032.094.049-.023-.013-.051-.026-.077-.039z" class="cls-1" data-name="Path 322"/>
                            <path id="Path_323" d="M-468.214 58.665z" class="cls-1" data-name="Path 323"/>
                        </g>
                        <path id="Path_324" d="M-451.708 72.368l-.674 6.955c-.014.143-.06.267-.2.267h-21.945c-.136 0-.2-.124-.19-.267l.674-6.955c.011-.112-.005-.223.011-.334a7.554 7.554 0 0 1 2.184-4.286c.034-.033.061-.066.1-.1a7.394 7.394 0 0 1 1.915-1.319l.125-.059a6.685 6.685 0 0 1 1.261-.424 7.906 7.906 0 0 0 .624.591 8.1 8.1 0 0 0 1.847 1.177c.126.058.253.113.381.164a8.14 8.14 0 0 0 1.535.448 8.626 8.626 0 0 0 1.592.146 9.106 9.106 0 0 0 1.85-.228c.076-.015.157-.087.231-.087h.334a2.8 2.8 0 0 0 .888-.3c.116-.044.231-.073.346-.123a8.448 8.448 0 0 0 1.629-.861c.054 0 .117-.1.174-.137a10.918 10.918 0 0 0 .989-.783 5.844 5.844 0 0 1 4.36 6.182c-.006.115-.033.221-.041.333z" class="cls-1" data-name="Path 324"/>
                    </g>
                </g>
            </g>
        </g>
    </g>
</svg>
