<svg xmlns="http://www.w3.org/2000/svg" width="115" height="115" viewBox="0 0 115 115">
    <defs>
        <style>
            .cls-1{fill:#ff9b57}
        </style>
    </defs>
    <g id="icone" transform="translate(175.716 -.021)">
        <g id="Group_223" data-name="Group 223">
            <g id="Group_222" data-name="Group 222">
                <path id="Path_329" d="M-118.216 115.021a57.564 57.564 0 0 1-57.5-57.5 57.565 57.565 0 0 1 57.5-57.5 57.565 57.565 0 0 1 57.5 57.5 57.564 57.564 0 0 1-57.5 57.5zm0-111.106a53.667 53.667 0 0 0-53.606 53.607 53.667 53.667 0 0 0 53.606 53.606 53.667 53.667 0 0 0 53.607-53.606 53.668 53.668 0 0 0-53.607-53.607z" class="cls-1" data-name="Path 329"/>
            </g>
        </g>
        <g id="Group_225" data-name="Group 225">
            <g id="Group_224" data-name="Group 224">
                <path id="Path_330" d="M-116.05 81.13h-10.158a3.154 3.154 0 0 1-3.193-3.536l.227-2.338a3.983 3.983 0 0 1 3.874-3.536h10.158a3.154 3.154 0 0 1 3.193 3.536l-.227 2.338a3.982 3.982 0 0 1-3.874 3.536z" class="cls-1" data-name="Path 330"/>
                <path id="Path_331" d="M-96.842 82.726h-48.883a1.928 1.928 0 0 1-1.952-2.162 2.433 2.433 0 0 1 2.371-2.161h48.883a1.927 1.927 0 0 1 1.952 2.161 2.435 2.435 0 0 1-2.371 2.162z" class="cls-1" data-name="Path 331"/>
                <path id="Path_332" d="M-86.559 35.871a3.17 3.17 0 0 0-3.209-3.554H-142.8a4 4 0 0 0-3.9 3.554l-3.178 32.78a3.17 3.17 0 0 0 3.21 3.554h53.028a4 4 0 0 0 3.9-3.554zm-5.757 30.148a4 4 0 0 1-3.9 3.554h-46.751a3.17 3.17 0 0 1-3.21-3.554l2.629-27.111a4 4 0 0 1 3.9-3.554H-92.9a3.17 3.17 0 0 1 3.209 3.554z" class="cls-1" data-name="Path 332"/>
            </g>
        </g>
    </g>
</svg>
