<svg xmlns="http://www.w3.org/2000/svg" width="115" height="115" viewBox="0 0 115 115">
    <defs>
        <style>
            .cls-1{fill:#ff9b57}
        </style>
    </defs>
    <g id="icone" transform="translate(894)">
        <g id="Group_196" data-name="Group 196">
            <g id="Group_195" data-name="Group 195">
                <path id="Path_285" d="M-836.5 115A57.565 57.565 0 0 1-894 57.5 57.565 57.565 0 0 1-836.5 0 57.565 57.565 0 0 1-779 57.5a57.565 57.565 0 0 1-57.5 57.5zm0-111.107A53.668 53.668 0 0 0-890.107 57.5a53.668 53.668 0 0 0 53.607 53.607A53.668 53.668 0 0 0-782.893 57.5 53.668 53.668 0 0 0-836.5 3.893z" class="cls-1" data-name="Path 285"/>
            </g>
        </g>
        <g id="Group_204" data-name="Group 204">
            <path id="Path_286" d="M-834.915 52.922a1.442 1.442 0 0 0-1.409 1.408l-.27 9.507a1.346 1.346 0 0 0 1.329 1.408 1.441 1.441 0 0 0 1.409-1.408l.27-9.507a1.346 1.346 0 0 0-1.329-1.408z" class="cls-1" data-name="Path 286"/>
            <path id="Path_287" d="M-836.271 62.919a1.43 1.43 0 0 0 .162 1.979l7.053 5.915a1.357 1.357 0 0 0 1.93-.224 1.43 1.43 0 0 0-.161-1.979l-7.054-5.915a1.357 1.357 0 0 0-1.93.224z" class="cls-1" data-name="Path 287"/>
            <g id="Group_203" data-name="Group 203">
                <g id="Group_198" data-name="Group 198">
                    <g id="Group_197" data-name="Group 197">
                        <path id="Path_288" d="M-826.933 29.541c0 .124-.01.247-.019.368a7.352 7.352 0 0 1-.264 1.468 7.4 7.4 0 0 1-.384 1.041c-.022.048-.044.1-.067.144-.08.166-.166.33-.258.489l-.084.143a7.47 7.47 0 0 1-1.227 1.528 6.742 6.742 0 0 1-.538.466q-.182.143-.371.273l-.055.038a7.37 7.37 0 0 1-.517.317q-.238.133-.488.248l-.03.014a6.951 6.951 0 0 1-1.021.372c-.074.021-.149.04-.224.058a6.8 6.8 0 0 1-1.082.173 7.01 7.01 0 0 1-.356.019h-.36c-.119 0-.238-.01-.355-.019a6.615 6.615 0 0 1-1.073-.173 5.06 5.06 0 0 1-.22-.058 6.578 6.578 0 0 1-1-.372l-.03-.014a6.73 6.73 0 0 1-.972-.565l-.053-.038a6.687 6.687 0 0 1-.355-.273c-.052-.042-.1-.086-.155-.131a6.41 6.41 0 0 1-.471-.452 6.894 6.894 0 0 1-1.026-1.411c-.026-.047-.051-.1-.076-.143a7.047 7.047 0 0 1-.231-.489l-.059-.144a7.067 7.067 0 0 1-.324-1.041q-.065-.281-.107-.568a7.257 7.257 0 0 1-.074-.9c-.003-.123 0-.244 0-.368s.03-.246.04-.368c.006-.075.04-.15.042-.224a1.288 1.288 0 0 1-.005-.138c.006-.045 0-.09.009-.135.019-.135.037-.268.064-.4.039-.192.082-.381.135-.568a7.4 7.4 0 0 1 .383-1.041l.032-.072.034-.071c.08-.167.166-.331.258-.49l.084-.142a7.477 7.477 0 0 1 1.226-1.529c.045-.042.09-.085.136-.126a6.802 6.802 0 0 1 .403-.34c.121-.095.244-.186.371-.273l.055-.037a7.127 7.127 0 0 1 1-.566l.03-.014a6.993 6.993 0 0 1 1.021-.372c.074-.02.149-.04.224-.058a6.81 6.81 0 0 1 1.083-.173c.118-.009.237-.016.356-.018h.36c.119 0 .237.009.355.018a6.652 6.652 0 0 1 1.073.173c.073.018.147.038.22.058a6.576 6.576 0 0 1 1 .372l.029.014a6.635 6.635 0 0 1 .973.566l.052.037c.122.087.24.178.356.273.052.043.1.086.155.131.077.068.153.137.228.209l.128.125a6.864 6.864 0 0 1 1.141 1.53 6.388 6.388 0 0 1 .306.632c.021.047.04.095.06.143a7.067 7.067 0 0 1 .324 1.041 7.584 7.584 0 0 1 .164 1.104c0 .056.007.112.01.169l.007.195c.008.124.008.242.004.365z" class="cls-1" data-name="Path 288"/>
                        <path id="Path_289" d="M-840.819 28.945zm-.124-.066l.019.011a.622.622 0 0 0 .105.055l-.022-.014c-.03-.018-.069-.031-.102-.052z" class="cls-1" data-name="Path 289"/>
                        <path id="Path_290" d="M-840.943 28.879c.033.017.072.034.1.052a1.284 1.284 0 0 0-.083-.041z" class="cls-1" data-name="Path 290"/>
                        <path id="Path_291" d="M-840.814 28.947z" class="cls-1" data-name="Path 291"/>
                    </g>
                    <path id="Path_292" d="M-822.785 43.556l-.21 7.415c0 .152 0 .181-.14.181h-22.746c-.142 0-.266-.029-.262-.181l.21-7.415c0-.12 0-.238.009-.356a7.574 7.574 0 0 1 1.974-4.569c.033-.036.064-.071.1-.106a7.034 7.034 0 0 1 1.9-1.407l.128-.063c.193-.092.391-.174.592-.247l.135-.047c.181-.061.365-.113.551-.158a8.7 8.7 0 0 0 .688.631 9.156 9.156 0 0 0 2 1.254c.135.062.27.121.407.175a8.688 8.688 0 0 0 1.622.478 8.9 8.9 0 0 0 1.661.155 8.946 8.946 0 0 0 1.9-.2 1.151 1.151 0 0 1 .232-.047h.346a2.816 2.816 0 0 0 .9-.363c.118-.047.236-.153.353-.2a8.418 8.418 0 0 0 1.63-.994c.056 0 .112-.051.168-.094a9.973 9.973 0 0 0 .97-.809 6.734 6.734 0 0 1 4.932 6.6c-.008.121-.047.247-.05.367z" class="cls-1" data-name="Path 292"/>
                </g>
                <g id="Group_200" data-name="Group 200">
                    <g id="Group_199" data-name="Group 199">
                        <path id="Path_293" d="M-847.761 63.32c0 .124-.011.247-.02.369a7.352 7.352 0 0 1-.264 1.467 7.394 7.394 0 0 1-.383 1.041 7.856 7.856 0 0 1-.326.633l-.084.143a7.5 7.5 0 0 1-1.226 1.528l-.136.127a8.016 8.016 0 0 1-.403.34 8.203 8.203 0 0 1-.371.272l-.055.038a6.992 6.992 0 0 1-.516.317q-.238.133-.488.249l-.03.013a6.877 6.877 0 0 1-1.021.372c-.075.021-.149.04-.224.059a6.93 6.93 0 0 1-1.082.172 7.112 7.112 0 0 1-.357.019h-.359c-.12 0-.238-.01-.356-.019a6.762 6.762 0 0 1-1.073-.172 7.894 7.894 0 0 1-.22-.059 6.47 6.47 0 0 1-1-.372l-.029-.013a6.323 6.323 0 0 1-.425-.221 6.447 6.447 0 0 1-.547-.345l-.053-.038a7.27 7.27 0 0 1-.356-.272l-.155-.131a7.524 7.524 0 0 1-.47-.453 6.863 6.863 0 0 1-1.027-1.411c-.026-.047-.051-.1-.076-.143a6.605 6.605 0 0 1-.23-.489l-.059-.144a6.962 6.962 0 0 1-.325-1.041 7.026 7.026 0 0 1-.164-1.103c-.008-.121-.014-.242-.016-.364s0-.245 0-.369 0-.246.015-.368c.005-.075.014-.149.016-.224a1.314 1.314 0 0 1 .021-.138c0-.045.015-.09.021-.135a7.419 7.419 0 0 1 .21-.969 7.271 7.271 0 0 1 .384-1.041l.033-.072.034-.071q.12-.25.258-.49l.084-.142a7.475 7.475 0 0 1 1.227-1.529 8.43 8.43 0 0 1 .376-.335c.054-.045.108-.088.162-.131.121-.1.245-.186.371-.273l.055-.037a7.137 7.137 0 0 1 1.005-.566l.03-.014a6.9 6.9 0 0 1 1.021-.372c.074-.02.148-.04.223-.058a6.945 6.945 0 0 1 1.083-.173 7.01 7.01 0 0 1 .356-.018h.36c.119 0 .238.009.355.018a6.745 6.745 0 0 1 1.073.173c.074.018.147.038.22.058a6.575 6.575 0 0 1 1 .372l.029.014a6.585 6.585 0 0 1 .973.566l.053.037c.121.087.24.178.355.273.052.043.1.086.155.131a5.643 5.643 0 0 1 .356.334 6.887 6.887 0 0 1 1.141 1.53l.076.142q.125.24.231.49c.02.047.04.1.059.143a7.074 7.074 0 0 1 .324 1.041 7.052 7.052 0 0 1 .164 1.104c0 .056.008.113.01.169l.007.195c.003.12.003.246 0 .366z" class="cls-1" data-name="Path 293"/>
                        <path id="Path_294" d="M-861.647 62.724zm-.124-.066l.018.011a.634.634 0 0 0 .106.055l-.023-.014c-.03-.017-.069-.035-.101-.052z" class="cls-1" data-name="Path 294"/>
                        <path id="Path_295" d="M-861.771 62.658c.032.017.071.035.1.052-.024-.014-.055-.028-.083-.041z" class="cls-1" data-name="Path 295"/>
                        <path id="Path_296" d="M-861.642 62.726z" class="cls-1" data-name="Path 296"/>
                    </g>
                    <path id="Path_297" d="M-843.475 77.335l-.21 7.415c-.005.152-.136.163-.278.163h-22.746c-.142 0-.318-.011-.314-.163l.21-7.415c0-.12.026-.238.035-.356a7.582 7.582 0 0 1 1.987-4.569c.032-.036.07-.071.1-.106a7.058 7.058 0 0 1 1.9-1.407l.128-.062q.291-.138.594-.248l.135-.047q.272-.092.551-.157a9.074 9.074 0 0 0 .689.63 9.11 9.11 0 0 0 2 1.254c.134.062.27.121.406.176a8.747 8.747 0 0 0 1.623.477 8.894 8.894 0 0 0 1.66.156 8.963 8.963 0 0 0 1.9-.206 1.189 1.189 0 0 1 .232-.057h.346a2.785 2.785 0 0 0 .9-.353c.117-.047.236-.158.352-.21a8.429 8.429 0 0 0 1.63-1 .317.317 0 0 0 .168-.085 10.061 10.061 0 0 0 .97-.8 6.8 6.8 0 0 1 5 6.606c.007.116.035.244.032.364z" class="cls-1" data-name="Path 297"/>
                </g>
                <g id="Group_202" data-name="Group 202">
                    <g id="Group_201" data-name="Group 201">
                        <path id="Path_298" d="M-808.576 63.2c0 .124-.01.246-.02.368s-.022.244-.037.364a7.3 7.3 0 0 1-.227 1.104 7.394 7.394 0 0 1-.383 1.041c-.022.048-.044.1-.067.144-.081.166-.167.33-.259.489-.027.048-.055.1-.084.143a7.465 7.465 0 0 1-1.226 1.528l-.136.127a9.4 9.4 0 0 1-.403.339c-.121.1-.244.186-.371.273l-.055.037a6.8 6.8 0 0 1-.516.318q-.238.133-.488.248l-.03.014a6.989 6.989 0 0 1-1.021.372c-.074.02-.149.04-.224.058a6.8 6.8 0 0 1-1.082.173 6.988 6.988 0 0 1-.357.019h-.359c-.12 0-.238-.01-.356-.019a6.621 6.621 0 0 1-1.072-.173 7.952 7.952 0 0 1-.221-.058 6.575 6.575 0 0 1-1-.372l-.029-.014a6.329 6.329 0 0 1-.425-.22 6.458 6.458 0 0 1-.547-.346l-.053-.037a6.711 6.711 0 0 1-.356-.273c-.052-.042-.1-.086-.154-.131a7.014 7.014 0 0 1-.471-.452 6.9 6.9 0 0 1-1.026-1.411c-.026-.047-.052-.1-.077-.143a7.529 7.529 0 0 1-.23-.489l-.059-.144a6.962 6.962 0 0 1-.325-1.041 7.584 7.584 0 0 1-.164-1.104c-.008-.12-.014-.241-.016-.364s0-.244 0-.368-.043-.246-.033-.368c.006-.075-.034-.15-.032-.224 0-.046.063-.092.069-.138s.039-.09.045-.135c.02-.135.056-.268.083-.4.039-.192.092-.381.145-.568a7.4 7.4 0 0 1 .387-1.041l.035-.072.034-.072c.081-.166.167-.33.259-.489l.084-.142a7.481 7.481 0 0 1 1.227-1.529 7.798 7.798 0 0 1 .376-.335c.054-.045.108-.088.162-.131q.181-.142.372-.273l.055-.037a7.068 7.068 0 0 1 1-.566l.03-.014a6.989 6.989 0 0 1 1.021-.372c.074-.02.149-.04.224-.058a6.8 6.8 0 0 1 1.082-.173c.118-.009.237-.016.357-.018h.359c.119 0 .238.009.356.018a6.621 6.621 0 0 1 1.072.173c.074.018.148.038.221.058a6.6 6.6 0 0 1 1 .372l.03.014a6.575 6.575 0 0 1 .972.566l.053.037c.121.087.24.178.355.273.053.043.1.086.155.131a6.439 6.439 0 0 1 .356.334 6.834 6.834 0 0 1 1.141 1.53l.076.142c.083.159.16.323.231.489l.059.144a7.074 7.074 0 0 1 .324 1.041q.064.281.107.568c.026.177.045.355.058.536 0 .056.007.112.01.169s.005.13.006.2c.007.112.006.234.003.36z" class="cls-1" data-name="Path 298"/>
                        <path id="Path_299" d="M-822.462 62.6zm-.124-.066l.019.011a.623.623 0 0 0 .105.055l-.022-.014c-.031-.016-.07-.033-.102-.05z" class="cls-1" data-name="Path 299"/>
                        <path id="Path_300" d="M-822.586 62.536c.032.017.071.034.1.052-.025-.014-.056-.028-.083-.041z" class="cls-1" data-name="Path 300"/>
                        <path id="Path_301" d="M-822.457 62.6z" class="cls-1" data-name="Path 301"/>
                    </g>
                    <path id="Path_302" d="M-804.386 77.213l-.21 7.415c0 .152-.043.285-.185.285h-22.747c-.141 0-.22-.133-.216-.285l.21-7.415c0-.12-.021-.238-.012-.356a7.563 7.563 0 0 1 1.963-4.569c.033-.036.059-.071.092-.106a7.01 7.01 0 0 1 1.893-1.407l.126-.063q.289-.138.592-.247l.134-.047c.181-.061.364-.113.55-.158a8.9 8.9 0 0 0 .689.631 9.109 9.109 0 0 0 2 1.254c.134.062.27.121.406.175a8.719 8.719 0 0 0 1.623.478 8.893 8.893 0 0 0 1.66.155 9 9 0 0 0 1.9-.242c.078-.017.157-.093.234-.093h.345a2.67 2.67 0 0 0 .9-.317c.118-.047.234-.078.351-.13a8.085 8.085 0 0 0 1.627-.919c.055 0 .114-.1.169-.146a10.153 10.153 0 0 0 .971-.835 6.738 6.738 0 0 1 4.954 6.591c.002.118-.015.231-.019.351z" class="cls-1" data-name="Path 302"/>
                </g>
                <path id="Path_303" d="M-844.205 70.589a1.452 1.452 0 0 1 .274-1.979l7.388-5.915a1.337 1.337 0 0 1 1.918.224 1.453 1.453 0 0 1-.275 1.981l-7.389 5.915a1.336 1.336 0 0 1-1.916-.226z" class="cls-1" data-name="Path 303"/>
            </g>
        </g>
    </g>
</svg>
