<svg xmlns="http://www.w3.org/2000/svg" width="115" height="115" viewBox="0 0 115 115">
    <defs>
        <style>
            .cls-1{fill:#ff9b57}
        </style>
    </defs>
    <g id="icone" transform="translate(718 .036)">
        <g id="Group_206" data-name="Group 206">
            <g id="Group_205" data-name="Group 205">
                <path id="Path_304" d="M-660.5 114.964a57.564 57.564 0 0 1-57.5-57.5 57.565 57.565 0 0 1 57.5-57.5 57.565 57.565 0 0 1 57.5 57.5 57.564 57.564 0 0 1-57.5 57.5zm0-111.106a53.668 53.668 0 0 0-53.607 53.607 53.667 53.667 0 0 0 53.607 53.606 53.667 53.667 0 0 0 53.607-53.606A53.668 53.668 0 0 0-660.5 3.858z" class="cls-1" data-name="Path 304"/>
            </g>
        </g>
        <path id="Path_305" d="M-635.2 45.043c.086-.887.173-1.814.25-2.74a2.936 2.936 0 0 0-2.833-3.547 10.309 10.309 0 0 0-1.246-.053c-8.523 0-17.047-.018-25.573.02a1.638 1.638 0 0 1-1.811-1.08c-.925-2.571-2.768-3.513-5.627-3.274a81.638 81.638 0 0 1-8.322.038 4.41 4.41 0 0 0-4.327 2.31l-4.049 41.762c.87 1.8 2.485 2.124 4.451 2.116 13.182-.054 26.343-.028 39.52-.028 2.561 0 3.665-.962 4.365-3.5 1.921-6.962 3.9-13.913 5.863-20.867.577-2.045 1.187-4.088 1.778-6.131a.542.542 0 0 1 .272-.41l.223-2.3c-1.084-1.715-1.101-1.765-2.934-2.316zm-47.516-6.612c.144-1.474.4-1.713 1.84-1.714 3.443 0 6.889-.026 10.326.03a1.9 1.9 0 0 1 1.282.688 11.55 11.55 0 0 1 1.086 1.9 3.122 3.122 0 0 0 3.069 1.683c8.7-.041 17.418-.021 26.113-.02 1.771 0 1.91.126 1.74 1.881l-.23 2.367h-1.578c-12.486 0-24.968-.036-37.454-.035-2.326 0-3.423.848-4.063 3.127-1.424 5.073-2.862 10.135-4.5 15.207.006-.3-.008-.6.021-.9q1.172-12.105 2.35-24.214z" class="cls-1" data-name="Path 305"/>
    </g>
</svg>
