<svg xmlns="http://www.w3.org/2000/svg" id="icone" width="115" height="115" viewBox="0 0 115 115">
    <defs>
        <style>
            .cls-1{fill:#ff9b57}
        </style>
    </defs>
    <g id="Group_190" data-name="Group 190">
        <g id="Group_189" data-name="Group 189">
            <path id="Path_279" d="M57.5 115A57.5 57.5 0 1 1 115 57.5 57.565 57.565 0 0 1 57.5 115zm0-111.106A53.606 53.606 0 1 0 111.106 57.5 53.667 53.667 0 0 0 57.5 3.894z" class="cls-1" data-name="Path 279"/>
        </g>
    </g>
    <g id="Group_192" data-name="Group 192" transform="translate(26.549 27.938)">
        <g id="Group_191" data-name="Group 191">
            <path id="Path_280" d="M42.683 43.568l4.655-4.968c2.086 1.5 4.131 3.015 6.221 4.47a63.563 63.563 0 0 0 23.622 10.49c2.69.554 4.8-.466 5.5-2.717.642-2.094-.529-3.87-3.183-4.439-10.237-2.2-18.731-7.368-26.862-13.568l4.669-5.136-19.957-3.41c1.8 6.504 3.513 12.698 5.335 19.278z" class="cls-1" data-name="Path 280" transform="translate(-20.947 -24.294)"/>
            <path id="Path_281" d="M24.634 60.666c-.5 5.144-1.011 10.288-1.493 15.432-.335 3.583.814 4.847 4.372 4.882.767.007 1.534.034 2.3-.015 2.467-.16 4.028-1.482 4.279-3.947q1.666-16.351 3.171-32.7c.227-2.464-1.078-3.792-3.514-3.944-.912-.056-1.839-.037-2.762-.013-2.983.082-4.491 1.424-4.8 4.418-.555 5.293-1.039 10.59-1.553 15.887z" class="cls-1" data-name="Path 281" transform="translate(-23.086 -21.888)"/>
            <path id="Path_282" d="M37.112 63.525c-.388 3.99-.8 7.981-1.152 11.97-.275 3.141.94 4.454 4.069 4.518.919.02 1.841.048 2.765-.02a4.085 4.085 0 0 0 4.135-3.832q1.338-12.776 2.471-25.553c.207-2.329-1.106-3.643-3.418-3.808A28.792 28.792 0 0 0 43 46.784c-2.846.1-4.352 1.443-4.664 4.309-.458 4.144-.821 8.287-1.224 12.432z" class="cls-1" data-name="Path 282" transform="translate(-21.16 -20.925)"/>
            <path id="Path_283" d="M60.7 66.024c.276-2.837.592-5.675.815-8.512.224-2.862-1.005-4.207-3.833-4.3a28.529 28.529 0 0 0-2.991.016 4.086 4.086 0 0 0-4.156 3.8q-1 9.087-1.764 18.176c-.2 2.333 1.093 3.659 3.395 3.825a27.047 27.047 0 0 0 3.218.013A4.2 4.2 0 0 0 59.812 75c.367-2.993.598-5.985.888-8.976z" class="cls-1" data-name="Path 283" transform="translate(-19.236 -19.962)"/>
            <path id="Path_284" d="M73.189 68.71c.167-1.686.386-3.374.48-5.057.143-2.567-1.1-3.9-3.669-4.019a31.344 31.344 0 0 0-2.988 0c-2.5.131-4.051 1.423-4.352 3.85q-.668 5.4-1.043 10.8c-.16 2.317 1.125 3.626 3.443 3.775a25.709 25.709 0 0 0 3.445 0 4.146 4.146 0 0 0 4.127-3.836c.268-1.831.376-3.674.557-5.513z" class="cls-1" data-name="Path 284" transform="translate(-17.308 -18.998)"/>
        </g>
    </g>
</svg>
