<svg xmlns="http://www.w3.org/2000/svg" width="115" height="115" viewBox="0 0 115 115">
    <defs>
        <style>
            .cls-1{fill:#ff9b57}.cls-2{fill:#f4863b}
        </style>
    </defs>
    <g id="icone" transform="translate(354 -.021)">
        <g id="Group_219" data-name="Group 219">
            <g id="Group_218" data-name="Group 218">
                <path id="Path_325" d="M-296.5 115.021a57.564 57.564 0 0 1-57.5-57.5 57.565 57.565 0 0 1 57.5-57.5 57.565 57.565 0 0 1 57.5 57.5 57.564 57.564 0 0 1-57.5 57.5zm0-111.106a53.668 53.668 0 0 0-53.607 53.607 53.668 53.668 0 0 0 53.607 53.606 53.668 53.668 0 0 0 53.607-53.606A53.668 53.668 0 0 0-296.5 3.915z" class="cls-1" data-name="Path 325"/>
            </g>
        </g>
        <g id="Group_221" data-name="Group 221">
            <g id="Group_220" data-name="Group 220">
                <path id="Path_326" d="M-291.776 30.71a15.96 15.96 0 0 1 4.429-2.588 16.228 16.228 0 0 1 18.767 5.3 14.674 14.674 0 0 1 2.55 4.88c1.889 6.6.4 12.359-4.629 17.046a15.494 15.494 0 0 1-12.085 4.126 15.888 15.888 0 0 1-5.1-1.234c-.606-.255-.616-.265-.308-.813a20.506 20.506 0 0 0 1.1-2.288c.08-.195.152-.28.383-.174a12.1 12.1 0 0 0 5.621 1.1 12.313 12.313 0 0 0 7.8-3.025 12.249 12.249 0 0 0 4.448-11.108 12.216 12.216 0 0 0-7.886-10.471 12.239 12.239 0 0 0-11.87 1.182c-.378.243-.57.26-.9-.088a12.011 12.011 0 0 0-2.32-1.845z" class="cls-2" data-name="Path 326"/>
                <path id="Path_327" d="M-281.637 50.334a2.6 2.6 0 0 0-.03-1.039c-.15-.31-.624-.21-.949-.315a4.675 4.675 0 0 1-2.438-1.714 1.262 1.262 0 0 1 .829-2.072c.259-.049.516-.109.776-.153a1.232 1.232 0 0 1 1.32.49 2.469 2.469 0 0 0 2.644.671.566.566 0 0 0 .444-.541.645.645 0 0 0-.358-.611 4.719 4.719 0 0 0-1.255-.381 15.687 15.687 0 0 1-2.56-.775 3.453 3.453 0 0 1-1.689-4.731 3.758 3.758 0 0 1 2.8-2.179c.4-.084.533-.249.495-.642a5.285 5.285 0 0 1 .007-.966 1.225 1.225 0 0 1 1.311-1.195 1.237 1.237 0 0 1 1.2 1.266 10.045 10.045 0 0 1-.01 1.053c-.022.288.081.412.362.477a4.168 4.168 0 0 1 2.128 1.167 1.246 1.246 0 0 1-.5 2.139 2.79 2.79 0 0 1-1.017.249 1.37 1.37 0 0 1-.933-.427 2.021 2.021 0 0 0-2.042-.452.587.587 0 0 0-.476.606.553.553 0 0 0 .458.569c.891.238 1.788.452 2.678.693a4.431 4.431 0 0 1 2.2 1.122 3.763 3.763 0 0 1-.987 5.806 4.358 4.358 0 0 1-1.465.574c-.347.053-.415.226-.4.534.02.513.01 1.027 0 1.54a1.269 1.269 0 0 1-1.219 1.3 1.289 1.289 0 0 1-1.3-1.277c-.01-.263 0-.527 0-.791z" class="cls-2" data-name="Path 327"/>
                <path id="Path_328" d="M-276.767 85.128c-.126-.87-.242-1.741-.382-2.608a87.374 87.374 0 0 0-2.872-12.577 23.548 23.548 0 0 0-2.565-5.861 4.405 4.405 0 0 0-2.505-2.018c-2.156-.611-4.294-1.282-6.44-1.929-.151-.046-.325-.058-.384-.248a2.1 2.1 0 0 0-.757-1c-.185-.149-.214-.255-.041-.451a20.619 20.619 0 0 0 3.884-6.887 1.8 1.8 0 0 1 .425-.7 2.586 2.586 0 0 0 .766-1.551 18.132 18.132 0 0 0 .029-3.074 1.555 1.555 0 0 0-.2-.8 2.812 2.812 0 0 1-.345-1.772c.012-.63 0-1.261 0-1.892a8.87 8.87 0 0 0-.43-2.989 9.733 9.733 0 0 0-8.072-6.951 26.149 26.149 0 0 0-5.052-.1 9.9 9.9 0 0 0-9.438 8.252 22.325 22.325 0 0 0-.143 3.6 3 3 0 0 1-.349 1.859.987.987 0 0 0-.117.376 16.956 16.956 0 0 0-.092 2.894 2.952 2.952 0 0 0 .908 2.256 1.125 1.125 0 0 1 .266.444 21.231 21.231 0 0 0 3.953 7.05c.147.167.166.276-.026.419a2.329 2.329 0 0 0-.746.91.64.64 0 0 1-.457.363c-1.978.593-3.942 1.236-5.936 1.768a4.823 4.823 0 0 0-3 2.255 18.536 18.536 0 0 0-1.232 2.379 50.123 50.123 0 0 0-2.474 7.826c-.864 3.5-1.523 7.042-2.061 10.605a1.9 1.9 0 0 0 2.084 2.4H-278.716a1.87 1.87 0 0 0 1.949-2.248zm-24.524-20.638l-.34 3.231a.606.606 0 0 1-.495.593.639.639 0 0 1-.683-.285q-.81-1.095-1.638-2.175a1.171 1.171 0 0 1-.257-.768c.013-1.128 0-2.257.007-3.385 0-.713.428-.986 1.064-.681a5.557 5.557 0 0 0 1.365.47.633.633 0 0 1 .573.665c.007.264.009.527.015.791.008.371-.072.757.292 1.042a.255.255 0 0 1 .046.047.719.719 0 0 1 .051.455zm5.27 2.744a7.582 7.582 0 0 0-.615.8.624.624 0 0 1-.685.278.632.632 0 0 1-.5-.6q-.18-1.659-.335-3.32a.5.5 0 0 1 .085-.374c.424-.348.3-.815.312-1.254v-.616a.63.63 0 0 1 .546-.646 6.919 6.919 0 0 0 1.446-.5c.573-.267.993-.009 1 .618.01.6 0 1.2 0 1.8a.646.646 0 0 0 0 .088 4.1 4.1 0 0 1-1.254 3.726zm-.431-9.878a2.921 2.921 0 0 1-2.254.779c-.041 0-.083-.008-.125-.01-.293-.018-.59.005-.885.005-.257 0-.517-.028-.771-.007-.036 0-.072.006-.108.012a3.266 3.266 0 0 1-2.881-1.209 14.152 14.152 0 0 1-4.027-7.409.578.578 0 0 0-.373-.438.916.916 0 0 1-.557-1.033 4.624 4.624 0 0 0 0-.527c0-.6.082-.7.667-.823.161-.033.232-.1.226-.258a1.282 1.282 0 0 0 0-.175c-.179-.911.275-1.353 1.092-1.646a10.641 10.641 0 0 1 3.795-.818 4.8 4.8 0 0 1 3.435 1.431 5.3 5.3 0 0 0 6.275 1.254.716.716 0 0 1 .884.107c.12.124.272.083.413.1a.644.644 0 0 1 .644.687c.01.249-.011.5.01.748a.807.807 0 0 1-.459.867 1.052 1.052 0 0 0-.55.863 12.975 12.975 0 0 1-2.1 4.793 12.447 12.447 0 0 1-2.351 2.707z" class="cls-2" data-name="Path 328"/>
            </g>
        </g>
    </g>
</svg>
