<svg xmlns="http://www.w3.org/2000/svg" id="_003-instagram" width="35" height="35" data-name="003-instagram" viewBox="0 0 35 35">
    <defs>
        <style>
            .cls-1{fill:#fc4747}
        </style>
    </defs>
    <path id="Path_202" d="M37.21 23.88H26.779a3.023 3.023 0 0 0-3.02 3.02v10.431a3.023 3.023 0 0 0 3.02 3.02H37.21a3.024 3.024 0 0 0 3.02-3.02V26.9a3.023 3.023 0 0 0-3.02-3.02zm-5.216 13.658a5.422 5.422 0 1 1 5.422-5.422 5.428 5.428 0 0 1-5.422 5.422zm5.6-9.723a1.283 1.283 0 1 1 1.283-1.283 1.284 1.284 0 0 1-1.286 1.282z" class="cls-1" data-name="Path 202" transform="translate(-14.494 -14.568)"/>
    <path id="Path_203" d="M39.98 36.971a3.131 3.131 0 1 0 3.131 3.13 3.135 3.135 0 0 0-3.131-3.13z" class="cls-1" data-name="Path 203" transform="translate(-22.48 -22.555)"/>
    <path id="Path_204" d="M17.5 0A17.5 17.5 0 1 0 35 17.5 17.5 17.5 0 0 0 17.5 0zm10.527 22.763a5.317 5.317 0 0 1-5.311 5.311H12.284a5.317 5.317 0 0 1-5.311-5.311V12.331a5.317 5.317 0 0 1 5.311-5.311h10.432a5.317 5.317 0 0 1 5.311 5.311z" class="cls-1" data-name="Path 204"/>
</svg>
