<svg xmlns="http://www.w3.org/2000/svg" width="35" height="35" viewBox="0 0 35 35">
    <defs>
        <style>
            .cls-1{fill:#fc4747}.cls-2{fill:#fff}
        </style>
    </defs>
    <g id="_002-linkedin" data-name="002-linkedin" transform="translate(0 .001)">
        <circle id="Ellipse_12" cx="17.5" cy="17.5" r="17.5" class="cls-1" data-name="Ellipse 12" transform="translate(0 -.001)"/>
        <g id="Group_158" data-name="Group 158" transform="translate(8.612 7.625)">
            <path id="Path_198" d="M46.968 35.627v7.358H42.7V36.12c0-1.724-.616-2.9-2.161-2.9a2.334 2.334 0 0 0-2.188 1.56 2.92 2.92 0 0 0-.141 1.04v7.166h-4.265s.057-11.627 0-12.831h4.267v1.818c-.009.014-.021.028-.028.042h.028v-.042a4.236 4.236 0 0 1 3.845-2.12c2.807 0 4.911 1.834 4.911 5.774zM29.482 23.969a2.223 2.223 0 1 0-.056 4.434h.028a2.224 2.224 0 1 0 .028-4.434zm-2.16 19.016h4.265V30.154h-4.265z" class="cls-2" data-name="Path 198" transform="translate(-27.068 -23.969)"/>
        </g>
    </g>
</svg>
