<svg xmlns="http://www.w3.org/2000/svg" xmlns:xlink="http://www.w3.org/1999/xlink" width="199" height="50.211" viewBox="0 0 199 50.211">
    <defs>
        <style>
            .cls-1{fill:none}.cls-2{fill:#5497d3}.cls-3{fill:#fc4747}.cls-4{fill:#76a0ce}.cls-5{fill:#8559a5}.cls-6{fill:url(#linear-gradient)}.cls-7{fill:url(#linear-gradient-2)}.cls-8{fill:#f4863b}.cls-10,.cls-9{fill:#333}.cls-9{font-size:27px;font-family:Lato-Black,Lato;font-weight:800}.cls-10{font-size:14px;font-family:Lato-Bold,Lato;font-weight:700}
        </style>
        <linearGradient id="linear-gradient" x1="-19.837" x2="11.309" y1="12.754" y2="-5.814" gradientUnits="objectBoundingBox">
            <stop offset="0" stop-color="#d0202d"/>
            <stop offset=".3" stop-color="#723f97"/>
            <stop offset=".338" stop-color="#684194"/>
            <stop offset=".473" stop-color="#47478a"/>
            <stop offset=".586" stop-color="#334b84"/>
            <stop offset=".662" stop-color="#2c4c82"/>
            <stop offset=".701" stop-color="#3a4c7c"/>
            <stop offset=".776" stop-color="#604d6e"/>
            <stop offset=".877" stop-color="#9d4d56"/>
            <stop offset="1" stop-color="#ef4e36"/>
        </linearGradient>
        <linearGradient id="linear-gradient-2" x1="-4388.615" x2="-4358.034" y1="-1066.408" y2="-1084.648" xlink:href="#linear-gradient"/>
    </defs>
    <g id="logo-v2" transform="translate(.15 -.15)">
        <g id="Group_185" data-name="Group 185" transform="translate(-.15 .15)">
            <g id="Group_184" data-name="Group 184">
                <path id="Path_262" d="M45.428 80.7v.309a.669.669 0 0 1-1.339 0V80.7a12.172 12.172 0 0 1-4.789 3.708 8.35 8.35 0 0 0 2.935 1.492 2.7 2.7 0 0 0 .824 1.905 2.956 2.956 0 0 0 4.068 0 2.685 2.685 0 0 0 .824-2.163 7.6 7.6 0 0 0 2.266-1.287 11.6 11.6 0 0 1-4.789-3.655z" class="cls-1" data-name="Path 262" transform="translate(-18.984 -39.218)"/>
                <path id="Path_263" d="M9.6 44.774h-.309a.669.669 0 1 1 0-1.339H9.6A12.063 12.063 0 0 1 5.738 38.8a8.381 8.381 0 0 0-1.493 2.523h-.36a2.783 2.783 0 1 0 0 5.562h.36a7.966 7.966 0 0 0 1.493 2.523A11.225 11.225 0 0 1 9.6 44.774z" class="cls-1" data-name="Path 263" transform="translate(-.408 -18.896)"/>
                <path id="Path_264" d="M23.588 56.629a.668.668 0 1 1 .36-1.287l2.111.566 3.915-3.708h-5.562L23.331 54a.739.739 0 0 1-.927.257.617.617 0 0 1-.257-.875l.669-1.081a8.567 8.567 0 0 0-7.416 5.718 8.922 8.922 0 0 0 9.476-.978z" class="cls-1" data-name="Path 264" transform="translate(-7.392 -25.395)"/>
                <path id="Path_265" d="M21.416 71.345l-.206.206a.716.716 0 0 1-.978 0 .653.653 0 0 1 0-.927l.206-.206a12.411 12.411 0 0 1-6.128-.618 7.987 7.987 0 0 0 .669 2.472 2.639 2.639 0 0 0-.979 2.06 2.826 2.826 0 0 0 2.884 2.781 3.037 3.037 0 0 0 2.008-.772 8.48 8.48 0 0 0 3.193.927 11.7 11.7 0 0 1-.669-5.923z" class="cls-1" data-name="Path 265" transform="translate(-6.713 -33.931)"/>
                <path id="Path_266" d="M38.146 62.847a.661.661 0 0 1-.463.824.716.716 0 0 1-.875-.463l-.36-1.236a7.993 7.993 0 0 0-1.236 8.6 8.4 8.4 0 0 0 5.51-6.952l-1.133.618a.675.675 0 0 1-.927-.257.617.617 0 0 1 .257-.875l1.854-1.03V57.8l-3.193 3.038z" class="cls-1" data-name="Path 266" transform="translate(-16.646 -28.111)"/>
                <path id="Path_267" d="M22.913 40.907l-.669-1.081a.617.617 0 0 1 .257-.875.675.675 0 0 1 .927.257l1.081 1.8h5.15L15.6 35.5a8.683 8.683 0 0 0 7.313 5.407z" class="cls-1" data-name="Path 267" transform="translate(-7.489 -17.295)"/>
                <path id="Path_268" d="M63.719 54.938a.668.668 0 1 1 .36 1.287l-1.287.309a8.922 8.922 0 0 0 9.476.978L57.9 51.9l3.708 3.553z" class="cls-1" data-name="Path 268" transform="translate(-28.005 -25.249)"/>
                <path id="Path_269" d="M47.051 47.854a1.8 1.8 0 0 0 .772 1.493 2.02 2.02 0 0 0 2.523-.206l.1-.1L47 47.7a.189.189 0 0 1 .051.154z" class="cls-1" data-name="Path 269" transform="translate(-22.718 -23.212)"/>
                <path id="Path_270" d="M73.048 69.818l.206.206a.653.653 0 0 1 0 .927.716.716 0 0 1-.978 0l-.206-.206a10.919 10.919 0 0 1-.669 5.871 8.84 8.84 0 0 0 2.884-.772c.051.1.155.155.206.257a2.956 2.956 0 0 0 4.068 0 2.678 2.678 0 0 0 0-3.914c-.1-.051-.154-.154-.257-.206a8.675 8.675 0 0 0 .824-2.781 12.759 12.759 0 0 1-6.078.618z" class="cls-1" data-name="Path 270" transform="translate(-34.553 -33.64)"/>
                <path id="Path_271" d="M57.686 61.977a.668.668 0 0 1-1.287-.36l.566-2.008L53 55.9v5.253l1.854 1.03a.674.674 0 0 1 .257.875.739.739 0 0 1-.927.257l-1.133-.615a8.325 8.325 0 0 0 5.974 7.1A7.974 7.974 0 0 0 58 60.741z" class="cls-1" data-name="Path 271" transform="translate(-25.629 -27.19)"/>
                <path id="Path_272" d="M16.355 61.86l1.545-3.553c0 .052.051.052.051.1l.463-.154a8.007 8.007 0 0 1 1.236-8.6l.36 1.236a.668.668 0 0 0 1.287-.36l-.566-2.008 3.193-3.038v-1.03l-.1.1 1.133-2.678a1.877 1.877 0 0 1-.772-1.493v-.154l-2.214-.875h-5.15l-1.081-1.8a.739.739 0 0 0-.927-.257.628.628 0 0 0-.257.875l.669 1.081a8.683 8.683 0 0 1-7.315-5.407L3.893 32.3a5.128 5.128 0 0 0-.566.515 11.081 11.081 0 0 0 0 16.119 5.512 5.512 0 0 0 .824.721 7.606 7.606 0 0 0-.051 1.081A11.668 11.668 0 0 0 16 62.117h.669a2.24 2.24 0 0 1-.309-.36c.047.103.047.103-.005.103zM3.687 43.733h-.36a2.783 2.783 0 1 1 0-5.562h.36a7.966 7.966 0 0 1 1.493-2.524 11.225 11.225 0 0 0 3.862 4.635h-.308a.669.669 0 1 0 0 1.339h.309A12.294 12.294 0 0 0 5.18 46.2a7.229 7.229 0 0 1-1.493-2.467zM12.081 58.1a2.8 2.8 0 0 1-2.008.772 2.826 2.826 0 0 1-2.884-2.781 2.565 2.565 0 0 1 .978-2.06A7.987 7.987 0 0 1 7.5 51.56a12.411 12.411 0 0 0 6.128.618l-.206.206a.653.653 0 0 0 0 .927.716.716 0 0 0 .978 0l.206-.206a10.919 10.919 0 0 0 .669 5.871 7.378 7.378 0 0 1-3.194-.876zm-4.223-9.784a8.567 8.567 0 0 1 7.416-5.716l-.674 1.081a.617.617 0 0 0 .257.875.675.675 0 0 0 .927-.257l1.081-1.8h5.51l-3.914 3.759-2.06-.515a.668.668 0 0 0-.36 1.287l1.287.309a9.051 9.051 0 0 1-9.47.977z" class="cls-2" data-name="Path 272" transform="translate(.15 -15.743)"/>
                <path id="Path_273" d="M63.6 58.179c0-.051.051-.051 0 0l-3.656-1.442a8.922 8.922 0 0 1-9.476-.978l1.287-.309a.668.668 0 1 0-.36-1.287l-2.111.515-3.708-3.553-2.11-.825-.1.1a2.02 2.02 0 0 1-2.523.206l-1.133 2.678.1-.1v5.3l-1.854 1.03a.674.674 0 0 0-.257.875.739.739 0 0 0 .927.257l1.133-.618a8.467 8.467 0 0 1-5.51 6.952 2.087 2.087 0 0 0 .257.463c.052 0 .052 0 .1-.051l-1.545 3.553-.051-.051a1.134 1.134 0 0 0-.412.051 3.107 3.107 0 0 0 .412.412 12.333 12.333 0 0 0 16.84 0 9.887 9.887 0 0 0 .721-.772 7.606 7.606 0 0 0 1.081.051c6.54 0 11.9-5.15 11.9-11.381a2.628 2.628 0 0 0 .048-1.076zM43.878 73.114a2.956 2.956 0 0 1-4.068 0 2.578 2.578 0 0 1-.824-1.905 9.312 9.312 0 0 1-2.935-1.493 12.172 12.172 0 0 0 4.789-3.708v.309a.669.669 0 1 0 1.339 0v-.309a12.172 12.172 0 0 0 4.789 3.708A9.123 9.123 0 0 1 44.7 71a2.708 2.708 0 0 1-.822 2.114zm5.253-6.025a8.325 8.325 0 0 1-5.974-7.107l1.133.618a.675.675 0 0 0 .927-.257.617.617 0 0 0-.257-.875l-1.854-1.03v-5.254l3.914 3.708-.567 2.008a.668.668 0 0 0 1.287.36l.36-1.236a7.974 7.974 0 0 1 1.031 9.065zm10.66-.206a2.956 2.956 0 0 1-4.068 0 .514.514 0 0 1-.206-.257 8.84 8.84 0 0 1-2.884.772 10.919 10.919 0 0 0 .669-5.871l.206.206a.716.716 0 0 0 .978 0 .653.653 0 0 0 0-.927l-.206-.206a11.866 11.866 0 0 0 6.128-.669 7.55 7.55 0 0 1-.824 2.781c.1.051.154.154.257.206a2.782 2.782 0 0 1-.05 3.965z" class="cls-3" data-name="Path 273" transform="translate(-15.734 -24.473)"/>
                <path id="Path_274" d="M32.775 86.665l1.545-3.553c-.051 0-.051 0-.1.051-.1-.155-.154-.309-.257-.463l-.463.154c0-.051-.051-.051-.051-.1L31.9 86.3h.1c.1.1.206.257.309.36a1.134 1.134 0 0 0 .412-.051z" class="cls-4" data-name="Path 274" transform="translate(-15.395 -40.188)"/>
                <path id="Path_275" d="M11.714 18.046a8.922 8.922 0 0 1 9.476.978l-1.287.309a.668.668 0 1 0 .36 1.287l2.111-.515 3.914 3.708h-.36l2.214.875a1.922 1.922 0 0 1 1.958-1.75 2.113 2.113 0 0 1 1.133.36 1.926 1.926 0 0 0-.824-.36l.772-1.751v.154l.721-.669V16.4l1.854-1.03a.628.628 0 0 0 .257-.875.739.739 0 0 0-.927-.257l-1.133.618a8.467 8.467 0 0 1 5.51-6.956 2.087 2.087 0 0 0-.257-.463h-.051L38.7 3.884a.05.05 0 0 0 .051.051 1.134 1.134 0 0 0 .412-.051 3.108 3.108 0 0 0-.412-.412 12.333 12.333 0 0 0-16.84 0 9.887 9.887 0 0 0-.721.772 7.606 7.606 0 0 0-1.081-.051c-6.746-.051-12.1 5.047-12.1 11.33a7.606 7.606 0 0 0 .048 1.077c-.1.051-.154.154-.257.206l4.017 1.545a.732.732 0 0 1-.103-.305zm15.758-14.42A2.871 2.871 0 0 1 30.356 1a2.817 2.817 0 0 1 2.884 2.729 9.614 9.614 0 0 1 2.472 1.339 12.172 12.172 0 0 0-4.789 3.708v-.309a.669.669 0 1 0-1.339 0v.309a12.172 12.172 0 0 0-4.789-3.708 7.439 7.439 0 0 1 2.677-1.442zm-4.943 4.017A8.325 8.325 0 0 1 28.5 14.75l-1.133-.618a.675.675 0 0 0-.927.257.583.583 0 0 0 .257.875l1.854 1.03v5.253L24.64 17.84l.566-2.008a.661.661 0 0 0-.463-.824.8.8 0 0 0-.875.515l-.36 1.236a8.136 8.136 0 0 1-.979-9.116zM11.3 9.909a2.826 2.826 0 0 1 2.884-2.781A3.041 3.041 0 0 1 16.3 8a10.051 10.051 0 0 1 2.781-.721 10.919 10.919 0 0 0-.669 5.871l-.206-.206a.716.716 0 0 0-.978 0 .653.653 0 0 0 0 .927l.206.206a12.411 12.411 0 0 0-6.134.623 7.584 7.584 0 0 1 .875-2.832 2.68 2.68 0 0 1-.875-1.959z" class="cls-5" data-name="Path 275" transform="translate(-3.706 -.15)"/>
                <path id="Path_276" d="M52.272 40.266l-.772 1.751a1.693 1.693 0 0 1 .824.36l.772-1.751-.1.1V39.7l-.721.772z" class="cls-6" data-name="Path 276" transform="translate(-24.901 -19.332)"/>
                <path id="Path_277" d="M52.272 40.266l-.772 1.751a1.693 1.693 0 0 1 .824.36l.772-1.751-.1.1V39.7l-.721.772z" class="cls-7" data-name="Path 277" transform="translate(-24.901 -19.332)"/>
                <path id="Path_278" d="M73.593 20.432c-.257-.257-.515-.463-.824-.721a7.254 7.254 0 0 0 .051-1.03A11.635 11.635 0 0 0 60.924 7.3h-.669a1.134 1.134 0 0 0-.412.051.05.05 0 0 0-.051-.051l-1.545 3.553h.053c.1.154.154.309.257.463a8.007 8.007 0 0 1-1.236 8.6l-.36-1.236a.668.668 0 0 0-1.287.36l.566 2.008-3.193 3.038-.772.669V24.6l-.775 1.754a1.693 1.693 0 0 1 .824.36c.051.051.154.1.206.154a1.853 1.853 0 0 1 .1 2.575l2.111.824-.206-.206h5.51l1.081 1.8a.739.739 0 0 0 .927.257.617.617 0 0 0 .257-.875l-.669-1.081a8.629 8.629 0 0 1 7.416 5.716l3.708 1.442a8.95 8.95 0 0 0 .772-.669 11.158 11.158 0 0 0 .056-16.219zm-9.115-9.27a3.009 3.009 0 0 1 4.068.051 2.69 2.69 0 0 1 .1 3.811 7.839 7.839 0 0 1 .875 2.884 13.06 13.06 0 0 0-6.128-.669l.206-.206a.653.653 0 0 0 0-.927.716.716 0 0 0-.978 0l-.206.206a10.919 10.919 0 0 0-.669-5.871 10.184 10.184 0 0 1 2.732.721zm-2.73 15.759l.669-1.081a.617.617 0 0 0-.257-.875.724.724 0 0 0-.927.257l-1.081 1.8h-5.51l3.914-3.708 2.111.515a.668.668 0 1 0 .36-1.287l-1.287-.309a9.029 9.029 0 0 1 9.476-.978 8.86 8.86 0 0 1-7.468 5.666zm11.587 4.274a7.658 7.658 0 0 1-1.493 2.575 10.772 10.772 0 0 0-3.862-4.583h.309a.669.669 0 1 0 0-1.339h-.309a12.063 12.063 0 0 0 3.862-4.635 8.868 8.868 0 0 1 1.442 2.42 2.94 2.94 0 0 1 2.163.824 2.678 2.678 0 0 1 0 3.914 3.132 3.132 0 0 1-2.112.824z" class="cls-8" data-name="Path 278" transform="translate(-24.901 -3.617)"/>
            </g>
        </g>
        <g id="Group_186" data-name="Group 186" transform="translate(58.362 10.15)">
            <text id="GrupoHunt" class="cls-9" transform="translate(0 19)">
                <tspan x="0" y="0">GrupoHunt</tspan>
            </text>
            <text id="Soluções_Empresariais" class="cls-10" data-name="Soluções Empresariais" transform="translate(.488 35.987)">
                <tspan x="0" y="0">Soluções Empresariais</tspan>
            </text>
        </g>
    </g>
</svg>
