<svg xmlns="http://www.w3.org/2000/svg" width="50.275" height="48.548" viewBox="0 0 50.275 48.548">
    <defs>
        <style>
            .cls-1{fill:#db6b1f}
        </style>
    </defs>
    <g id="simbolo" transform="translate(0 -51.075)">
        <g id="Group_1" data-name="Group 1" transform="translate(0 51.075)">
            <path id="Path_134" d="M15.858 78.864l1.492-3.448c.013.029.029.054.045.083.16-.048.314-.1.471-.16a7.764 7.764 0 0 1 1.21-8.295l.333 1.188a.661.661 0 0 0 .81.448.644.644 0 0 0 .471-.778l-.544-1.937L23.2 63.03v-.973l-.122.115 1.116-2.572a1.8 1.8 0 0 1-.768-1.466c0-.042 0-.083.006-.128l-2.126-.823h-4.952l-1.047-1.733a.686.686 0 0 0-.906-.234.621.621 0 0 0-.243.864l.643 1.066a8.33 8.33 0 0 1-7.046-5.218l-3.867-1.5c-.186.157-.365.317-.541.487a10.72 10.72 0 0 0 0 15.568c.256.243.519.474.791.685a9.871 9.871 0 0 0-.051 1.021A11.289 11.289 0 0 0 15.576 79.2c.224 0 .448-.006.669-.019-.1-.112-.2-.224-.3-.339a.216.216 0 0 1-.087.022zM3.629 61.362a2.7 2.7 0 0 1-.323.019 2.676 2.676 0 1 1 0-5.346 2.7 2.7 0 0 1 .323.019 7.845 7.845 0 0 1 1.425-2.43 11.3 11.3 0 0 0 3.723 4.453h-.3a.636.636 0 1 0 0 1.271h.3A11.255 11.255 0 0 0 5.053 63.8a7.9 7.9 0 0 1-1.424-2.438zm8.09 13.894a2.836 2.836 0 0 1-1.953.765 2.736 2.736 0 0 1-2.792-2.673 2.62 2.62 0 0 1 .957-2.014 7.568 7.568 0 0 1-.643-2.379 12.083 12.083 0 0 0 5.913.621l-.214.2a.617.617 0 0 0 0 .9.694.694 0 0 0 .938 0l.211-.2a10.675 10.675 0 0 0 .653 5.666 8.495 8.495 0 0 1-3.071-.886zM7.643 65.79a8.3 8.3 0 0 1 7.157-5.532l-.643 1.066a.62.62 0 0 0 .243.864.677.677 0 0 0 .906-.234l1.047-1.735h5.314l-3.762 3.608-2.02-.522a.671.671 0 0 0-.81.448.632.632 0 0 0 .471.778l1.242.32a8.681 8.681 0 0 1-9.145.939z" class="cls-1" data-name="Path 134" transform="translate(.003 -34.281)"/>
            <path id="Path_135" d="M80.627 85.721l.045-.035-3.557-1.38c0 .01.006.016.01.026a8.669 8.669 0 0 1-9.143-.941l1.242-.317a.632.632 0 0 0 .467-.775.675.675 0 0 0-.813-.451l-2.023.519-3.573-3.425-2.042-.792a1.228 1.228 0 0 1-.09.093 1.972 1.972 0 0 1-2.455.2l-.006.016-1.111 2.567.122-.115V86l-1.815 1a.628.628 0 0 0-.243.868.675.675 0 0 0 .906.23l1.114-.615a8.088 8.088 0 0 1-5.3 6.7c.07.157.147.314.23.467l.093-.029-1.489 3.451-.054-.064c-.131.013-.266.022-.4.032.134.144.272.282.416.419a11.881 11.881 0 0 0 16.25 0 10.01 10.01 0 0 0 .717-.759 10.665 10.665 0 0 0 1.066.051 11.29 11.29 0 0 0 11.484-11.005 9.076 9.076 0 0 0-.048-1.025zm-19.06 14.419a2.88 2.88 0 0 1-3.947 0 2.605 2.605 0 0 1-.816-1.863 8.307 8.307 0 0 1-2.827-1.453 11.493 11.493 0 0 0 4.642-3.566v.288a.659.659 0 0 0 .663.637.651.651 0 0 0 .663-.637v-.291a11.568 11.568 0 0 0 4.639 3.569 8.3 8.3 0 0 1-2.209 1.245 2.575 2.575 0 0 1-.808 2.071zm5.106-5.8a8.112 8.112 0 0 1-5.773-6.855l1.114.615a.678.678 0 0 0 .906-.23.625.625 0 0 0-.242-.87l-1.815-1v-5.09l3.758 3.6-.541 1.934a.632.632 0 0 0 .471.778.666.666 0 0 0 .81-.448l.333-1.191a7.765 7.765 0 0 1 .979 8.759zm10.267-.173a2.88 2.88 0 0 1-3.947 0 2.944 2.944 0 0 1-.214-.234 8.536 8.536 0 0 1-2.8.752 10.716 10.716 0 0 0 .65-5.666l.211.2a.687.687 0 0 0 .938 0 .615.615 0 0 0 0-.893l-.214-.2a12.135 12.135 0 0 0 5.916-.624 7.671 7.671 0 0 1-.784 2.683 2.948 2.948 0 0 1 .243.2 2.594 2.594 0 0 1 0 3.784z" class="cls-1" data-name="Path 135" transform="translate(-34.496 -53.127)"/>
            <path id="Path_136" d="M50.372 132.12l1.489-3.451-.093.029a7.202 7.202 0 0 1-.23-.467 7.238 7.238 0 0 1-.471.16l-.045-.083-1.492 3.448a.788.788 0 0 1 .086-.006c.1.115.2.227.3.339.131-.006.266-.019.4-.032a.77.77 0 0 1 .056.063z" class="cls-1" data-name="Path 136" transform="translate(-33.673 -87.175)"/>
            <path id="Path_137" d="M15.885 17.331a8.674 8.674 0 0 1 9.143.938l-1.242.32a.636.636 0 0 0-.471.778.663.663 0 0 0 .81.448l2.02-.519L29.9 22.9h-.359l2.126.823a1.877 1.877 0 0 1 1.9-1.7 1.955 1.955 0 0 1 1.1.336l.006-.016a1.96 1.96 0 0 0-.807-.343l.739-1.709v.154l.695-.666V15.66l1.812-1a.624.624 0 0 0 .243-.868.688.688 0 0 0-.906-.234l-1.111.618a8.089 8.089 0 0 1 5.3-6.7 6.729 6.729 0 0 0-.23-.467l-.064.019 1.479-3.419c.013.013.022.026.035.038l.394-.029a8.22 8.22 0 0 0-.416-.419 11.877 11.877 0 0 0-16.247 0 9.932 9.932 0 0 0-.717.756 11.813 11.813 0 0 0-1.066-.051 11.291 11.291 0 0 0-11.488 11.007 9.826 9.826 0 0 0 .051 1.021l-.25.2 3.867 1.5c-.028-.093-.066-.195-.101-.301zm15.2-13.9a2.794 2.794 0 0 1 5.57.1 8.284 8.284 0 0 1 2.375 1.306A11.524 11.524 0 0 0 34.385 8.4v-.285a.662.662 0 0 0-1.322 0V8.4a11.471 11.471 0 0 0-4.642-3.566 8.343 8.343 0 0 1 2.667-1.403zm-4.748 3.883a8.124 8.124 0 0 1 5.772 6.86l-1.114-.615a.676.676 0 0 0-.9.227.618.618 0 0 0 .243.868l1.809 1v5.096l-3.758-3.6.541-1.937a.635.635 0 0 0-.464-.778.669.669 0 0 0-.81.448l-.333 1.188a7.742 7.742 0 0 1-.986-8.757zM15.51 9.491a2.734 2.734 0 0 1 2.79-2.673 2.842 2.842 0 0 1 2.046.858 8.55 8.55 0 0 1 2.683-.7 10.682 10.682 0 0 0-.653 5.666l-.211-.2a.687.687 0 0 0-.938 0 .619.619 0 0 0 0 .9l.214.2a12.079 12.079 0 0 0-5.913.621 7.625 7.625 0 0 1 .823-2.76 2.615 2.615 0 0 1-.841-1.912z" class="cls-1" data-name="Path 137" transform="translate(-8.239 .015)"/>
            <path id="Path_138" d="M80.8 62.332l-.74 1.709a1.943 1.943 0 0 1 .816.336l.733-1.7-.115.109v-.97l-.695.666z" class="cls-1" data-name="Path 138" transform="translate(-54.43 -42.025)"/>
            <path id="Path_139" d="M80.8 62.332l-.74 1.709a1.943 1.943 0 0 1 .816.336l.733-1.7-.115.109v-.97l-.695.666z" class="cls-1" data-name="Path 139" transform="translate(-54.43 -42.025)"/>
            <path id="Path_140" d="M101.365 24a12.608 12.608 0 0 0-.791-.688 8.918 8.918 0 0 0 .051-1.018A11.286 11.286 0 0 0 89.14 11.289a11.417 11.417 0 0 0-1.063.048c-.013-.013-.022-.026-.035-.038l-1.479 3.419.064-.019c.083.154.16.311.23.467a7.763 7.763 0 0 1-1.21 8.295l-.33-1.188a.678.678 0 0 0-.813-.451.636.636 0 0 0-.471.778l.544 1.937-3.064 2.936-.695.666v-.154l-.74 1.709a1.943 1.943 0 0 1 .816.336 1.529 1.529 0 0 1 .208.173 1.775 1.775 0 0 1 .09 2.494l2.042.791-.186-.176h5.314l1.047 1.735a.678.678 0 0 0 .906.23.624.624 0 0 0 .243-.868l-.64-1.066a8.311 8.311 0 0 1 7.149 5.509l3.557 1.38a9.9 9.9 0 0 0 .746-.653A10.727 10.727 0 0 0 101.365 24zm-8.8-8.97a2.88 2.88 0 0 1 3.909.032 2.594 2.594 0 0 1 .106 3.672 7.661 7.661 0 0 1 .848 2.8 11.968 11.968 0 0 0-5.913-.621l.214-.2a.617.617 0 0 0 0-.9.684.684 0 0 0-.938 0l-.214.2a10.687 10.687 0 0 0-.653-5.67 8.447 8.447 0 0 1 2.638.691zm-2.651 15.21l.64-1.066a.624.624 0 0 0-.243-.868.681.681 0 0 0-.9.234l-1.047 1.735h-5.316l3.758-3.6 2.02.519a.667.667 0 0 0 .813-.451.633.633 0 0 0-.471-.775l-1.239-.32a8.681 8.681 0 0 1 9.143-.941 8.311 8.311 0 0 1-7.158 5.533zm11.195 4.123a7.833 7.833 0 0 1-1.453 2.51 11.229 11.229 0 0 0-3.723-4.447h.3a.636.636 0 1 0 0-1.271h-.3a11.209 11.209 0 0 0 3.72-4.45 7.735 7.735 0 0 1 1.38 2.315 2.861 2.861 0 0 1 2.081.778 2.6 2.6 0 0 1 0 3.781 2.832 2.832 0 0 1-2.005.785z" class="cls-1" data-name="Path 140" transform="translate(-54.443 -7.67)"/>
        </g>
    </g>
</svg>
