<svg xmlns="http://www.w3.org/2000/svg" id="simbolo" width="50.225" height="48.5" viewBox="0 0 50.225 48.5">
    <defs>
        <style>
            .cls-1{fill:#6b3e8c}
        </style>
    </defs>
    <path id="Path_134" d="M15.842 78.836l1.49-3.444c.013.029.029.054.045.083.16-.048.313-.1.47-.16a7.756 7.756 0 0 1 1.209-8.286l.333 1.187a.661.661 0 0 0 .809.448.643.643 0 0 0 .47-.777l-.544-1.935 3.057-2.933v-.972l-.122.115L24.17 59.6a1.8 1.8 0 0 1-.768-1.465c0-.042 0-.083.006-.128l-2.124-.822h-4.946l-1.046-1.737a.685.685 0 0 0-.905-.233.621.621 0 0 0-.243.864l.643 1.065a8.321 8.321 0 0 1-7.039-5.213l-3.863-1.5c-.185.157-.365.317-.54.486a10.709 10.709 0 0 0 0 15.553c.256.243.518.473.79.684a9.861 9.861 0 0 0-.051 1.02 11.278 11.278 0 0 0 11.478 11c.224 0 .448-.006.668-.019-.1-.112-.2-.224-.3-.339a.216.216 0 0 1-.088.02zM3.625 61.352a2.693 2.693 0 0 1-.323.019 2.673 2.673 0 1 1 0-5.341 2.7 2.7 0 0 1 .323.019 7.837 7.837 0 0 1 1.423-2.427 11.285 11.285 0 0 0 3.72 4.448h-.3a.635.635 0 1 0 0 1.27h.3a11.244 11.244 0 0 0-3.719 4.442 7.889 7.889 0 0 1-1.424-2.43zm8.082 13.88A2.833 2.833 0 0 1 9.756 76a2.733 2.733 0 0 1-2.789-2.67 2.618 2.618 0 0 1 .956-2.012 7.56 7.56 0 0 1-.643-2.376 12.072 12.072 0 0 0 5.907.62l-.214.2a.617.617 0 0 0 0 .9.693.693 0 0 0 .937 0l.211-.2a10.664 10.664 0 0 0 .652 5.661 8.486 8.486 0 0 1-3.066-.891zm-4.072-9.457a8.3 8.3 0 0 1 7.151-5.526l-.643 1.065a.619.619 0 0 0 .243.864.676.676 0 0 0 .905-.233l1.046-1.733h5.309l-3.758 3.6-2.018-.521a.67.67 0 0 0-.809.448.632.632 0 0 0 .47.777l1.241.32a8.672 8.672 0 0 1-9.137.939z" class="cls-1" data-name="Path 134" transform="translate(.003 -34.297)"/>
    <path id="Path_135" d="M80.6 85.714l.045-.035L77.09 84.3c0 .01.006.016.01.026a8.66 8.66 0 0 1-9.134-.94l1.241-.317a.631.631 0 0 0 .467-.774.674.674 0 0 0-.812-.451l-2.021.518-3.571-3.422-2.04-.79a1.224 1.224 0 0 1-.09.093 1.97 1.97 0 0 1-2.453.2l-.006.016-1.11 2.565.122-.115V86l-1.813 1a.627.627 0 0 0-.243.867.674.674 0 0 0 .905.23l1.113-.614a8.08 8.08 0 0 1-5.3 6.694c.07.157.147.313.23.467l.093-.029-1.487 3.448-.054-.064c-.131.013-.265.022-.4.032.134.144.272.281.416.419a11.869 11.869 0 0 0 16.234 0 10 10 0 0 0 .716-.758 10.653 10.653 0 0 0 1.065.051 11.279 11.279 0 0 0 11.475-11 9.065 9.065 0 0 0-.043-1.029zm-19.042 14.4a2.877 2.877 0 0 1-3.943 0 2.6 2.6 0 0 1-.816-1.861 8.3 8.3 0 0 1-2.826-1.453 11.481 11.481 0 0 0 4.637-3.563v.288a.658.658 0 0 0 .662.636.65.65 0 0 0 .662-.636v-.291a11.556 11.556 0 0 0 4.632 3.566 8.29 8.29 0 0 1-2.207 1.244 2.572 2.572 0 0 1-.803 2.074zm5.1-5.792a8.1 8.1 0 0 1-5.766-6.85L62 88.09a.677.677 0 0 0 .905-.23.624.624 0 0 0-.243-.867l-1.813-1v-5.086l3.758 3.593-.54 1.932a.631.631 0 0 0 .47.777.665.665 0 0 0 .809-.448l.333-1.19a7.758 7.758 0 0 1 .978 8.755zm10.257-.173a2.877 2.877 0 0 1-3.943 0 2.939 2.939 0 0 1-.214-.233 8.528 8.528 0 0 1-2.8.752 10.706 10.706 0 0 0 .649-5.661l.211.2a.687.687 0 0 0 .937 0 .615.615 0 0 0 0-.892l-.214-.2a12.123 12.123 0 0 0 5.91-.624 7.663 7.663 0 0 1-.784 2.68 2.943 2.943 0 0 1 .243.2 2.592 2.592 0 0 1 .004 3.783z" class="cls-1" data-name="Path 135" transform="translate(-34.512 -53.152)"/>
    <path id="Path_136" d="M50.371 132.116l1.487-3.448-.093.029a6.957 6.957 0 0 1-.23-.467 7.21 7.21 0 0 1-.47.16l-.045-.083-1.49 3.444a.786.786 0 0 1 .086-.006c.1.115.2.227.3.339.131-.006.265-.019.4-.032.02.022.039.048.055.064z" class="cls-1" data-name="Path 136" transform="translate(-33.689 -87.215)"/>
    <path id="Path_137" d="M15.881 17.314a8.666 8.666 0 0 1 9.134.937l-1.241.32a.636.636 0 0 0-.47.777.662.662 0 0 0 .809.448l2.018-.518 3.755 3.6h-.358l2.124.822a1.875 1.875 0 0 1 1.9-1.7 1.953 1.953 0 0 1 1.1.336l.006-.016a1.958 1.958 0 0 0-.816-.336l.739-1.708v.154l.694-.665v-4.12l1.81-1a.624.624 0 0 0 .243-.867.687.687 0 0 0-.905-.233l-1.11.617a8.081 8.081 0 0 1 5.3-6.694 6.957 6.957 0 0 0-.23-.467l-.064.019L41.8 3.6c.013.013.022.026.035.038l.393-.029a8.22 8.22 0 0 0-.416-.419 11.865 11.865 0 0 0-16.231 0 9.923 9.923 0 0 0-.716.755 11.809 11.809 0 0 0-1.065-.051 11.28 11.28 0 0 0-11.478 11 9.816 9.816 0 0 0 .051 1.02 43.61 43.61 0 0 1-.249.2l3.863 1.5c-.032-.092-.071-.194-.106-.3zM31.069 3.428a2.791 2.791 0 0 1 5.565.1A8.276 8.276 0 0 1 39 4.832a11.513 11.513 0 0 0-4.641 3.563v-.288a.661.661 0 0 0-1.321 0v.288a11.46 11.46 0 0 0-4.637-3.563 8.335 8.335 0 0 1 2.668-1.404zm-4.746 3.879a8.116 8.116 0 0 1 5.766 6.854l-1.113-.614a.675.675 0 0 0-.9.227.618.618 0 0 0 .243.867l1.807 1v5.089l-3.756-3.595.54-1.935a.634.634 0 0 0-.464-.777.668.668 0 0 0-.809.448l-.337 1.186a7.735 7.735 0 0 1-.977-8.75zM15.507 9.482A2.731 2.731 0 0 1 18.3 6.811a2.839 2.839 0 0 1 2.044.857 8.542 8.542 0 0 1 2.68-.7 10.672 10.672 0 0 0-.652 5.661l-.211-.2a.687.687 0 0 0-.937 0 .618.618 0 0 0 0 .9l.214.2a12.068 12.068 0 0 0-5.907.62 7.617 7.617 0 0 1 .822-2.757 2.612 2.612 0 0 1-.846-1.91z" class="cls-1" data-name="Path 137" transform="translate(-8.243 .015)"/>
    <path id="Path_138" d="M80.8 62.332l-.74 1.708a1.941 1.941 0 0 1 .816.336l.732-1.7-.115.109v-.965l-.694.665z" class="cls-1" data-name="Path 138" transform="translate(-54.455 -42.044)"/>
    <path id="Path_139" d="M80.8 62.332l-.74 1.708a1.941 1.941 0 0 1 .816.336l.732-1.7-.115.109v-.965l-.694.665z" class="cls-1" data-name="Path 139" transform="translate(-54.455 -42.044)"/>
    <path id="Path_140" d="M101.345 23.992a12.59 12.59 0 0 0-.79-.688 8.91 8.91 0 0 0 .051-1.017 11.275 11.275 0 0 0-11.475-11 11.358 11.358 0 0 0-1.061.048c-.013-.013-.022-.026-.035-.038l-1.478 3.416.064-.019c.083.154.16.31.23.467a7.755 7.755 0 0 1-1.209 8.286l-.329-1.187a.677.677 0 0 0-.812-.451.636.636 0 0 0-.47.777l.544 1.935-3.061 2.933-.694.665v-.154l-.739 1.708a1.941 1.941 0 0 1 .816.336 1.528 1.528 0 0 1 .208.173 1.773 1.773 0 0 1 .09 2.491l2.04.79-.185-.176h5.309l1.041 1.735a.677.677 0 0 0 .905.23.623.623 0 0 0 .243-.867l-.64-1.065a8.3 8.3 0 0 1 7.141 5.5l3.553 1.378c.256-.2.505-.422.745-.652a10.717 10.717 0 0 0-.002-15.554zm-8.795-8.961a2.877 2.877 0 0 1 3.9.032 2.591 2.591 0 0 1 .106 3.668 7.654 7.654 0 0 1 .848 2.8 11.956 11.956 0 0 0-5.907-.62l.214-.2a.617.617 0 0 0 0-.9.683.683 0 0 0-.937 0l-.214.2a10.676 10.676 0 0 0-.652-5.664 8.439 8.439 0 0 1 2.642.684zM89.9 30.222l.64-1.065a.623.623 0 0 0-.243-.867.68.68 0 0 0-.9.233l-1.046 1.733h-5.306l3.755-3.6 2.018.518a.666.666 0 0 0 .812-.451.632.632 0 0 0-.47-.774l-1.238-.32a8.672 8.672 0 0 1 9.134-.94 8.3 8.3 0 0 1-7.156 5.533zm11.184 4.119a7.825 7.825 0 0 1-1.452 2.507 11.218 11.218 0 0 0-3.719-4.442h.3a.635.635 0 1 0 0-1.27h-.3a11.2 11.2 0 0 0 3.716-4.445A7.727 7.727 0 0 1 101.015 29a2.858 2.858 0 0 1 2.079.777 2.594 2.594 0 0 1 0 3.777 2.829 2.829 0 0 1-2.005.787z" class="cls-1" data-name="Path 140" transform="translate(-54.468 -7.673)"/>
</svg>
